<svg id="signature" xmlns="http://www.w3.org/2000/svg" xmlns:xlink="http://www.w3.org/1999/xlink" viewBox="0 0 640 480" shape-rendering="geometricPrecision" text-rendering="geometricPrecision">
  <path class="stroke-dev" d="M191.4609,190.69651C191.4609,214.28064,189.99045,238.37883,191.4609,261.90596C191.59561,
        264.06137,195.30785,304.14886,195.08172,304.14886C192.50566,304.14886,191.86321,300.12573,190.25396,298.11416C177.84009,
        282.59682,160.08051,269.66488,141.97636,261.90596C130.78279,257.10872,117.9957,253.19102,105.76816,252.25044C100.15236,
        251.81846,89.66754,257.82622,88.871,252.25044C88.73782,251.31821,139.7416,203.42183,144.39024,199.14508C175.08957,170.9017,
        325.43787,54.32116,372.50188,117.07317C426.45183,189.00644,230.40964,331.45666,181.80538,360.87503C160.53082,373.75174,
        95.15322,405.49015,88.87101,365.70279C86.87224,353.04389,83.96009,332.26209,90.07795,321.04601C115.8021,273.88508,266.07459,
        145.96328,327.84511,167.76464C365.48373,181.04886,262.80871,267.68493,294.05079,228.11163C303.56016,216.06642,374.5037,169.36901,
        393.01986,178.62709C398.91285,181.57358,392.21159,197.713,395.43374,199.14507C412.70892,206.82293,416.55178,174.3994,428.02112,
        185.86873C434.64074,192.48835,452.252,188.48322,458.19462,183.45485C462.76029,179.59159,466.67553,165.39386,470.26402,170.17851C477.27819,
        179.53074,461.91534,195.84556,475.09178,206.38671C476.78355,207.74013,483.15506,208.03987,481.12648,208.80059C474.35952,211.3382,446.5723,
        208.92276,442.5044,210.00753C418.82061,216.32321,397.76052,230.09002,374.91577,238.97409C287.0771,273.13357,196.91987,310.09337,103.35429,323.45988"
        transform="matrix(1 0 0 1 0.000001 0.000001)" fill="none" stroke="rgb(63,87,135)" stroke-width="3"/>
</svg>